STARTFONT 2.1
COMMENT  
COMMENT  Copyright (c) 1984, 1987 Adobe Systems Incorporated. All Rights Reserved. Copyright (c) 1988, 1991 Digital Equipment Corporation. All Rights Reserved.
COMMENT  
COMMENT  WARNING:  This bdf file was generated from a font server using
COMMENT  fstobdf.  The resulting font is subject to the same copyright,
COMMENT  license, and trademark restrictions as the original font.  The
COMMENT  authors and distributors of fstobdf disclaim all liability for
COMMENT  misuse of the program or its output.
COMMENT  
FONT -Adobe-Helvetica-Medium-R-Normal--14-140-75-75-P-77-ISO8859-1
SIZE 14 75 75
FONTBOUNDINGBOX 15 17 -1 -3
STARTPROPERTIES 32
FOUNDRY "Adobe"
FAMILY_NAME "Helvetica"
WEIGHT_NAME "Medium"
SLANT "R"
SETWIDTH_NAME "Normal"
ADD_STYLE_NAME ""
PIXEL_SIZE 14
POINT_SIZE 140
RESOLUTION_X 75
RESOLUTION_Y 75
SPACING "P"
AVERAGE_WIDTH 77
CHARSET_REGISTRY "ISO8859"
CHARSET_ENCODING "1"
CAP_HEIGHT 11
X_HEIGHT 8
FACE_NAME "Helvetica"
COPYRIGHT "Copyright (c) 1984, 1987 Adobe Systems Incorporated. All Rights Reserved. Copyright (c) 1988, 1991 Digital Equipment Corporation. All Rights Reserved."
NOTICE "Helvetica is a trademark of Linotype-Hell AG and/or its subsidiaries.  "
_DEC_DEVICE_FONTNAMES "PS=Helvetica"
_DEC_PRODUCTINFO "DECwindows Fonts V2.2, 11-Nov-1991"
RELATIVE_SETWIDTH 50
RELATIVE_WEIGHT 50
CHARSET_COLLECTIONS "ASCII ISO8859-1 ADOBE-STANDARD"
FULL_NAME "Helvetica"
FONT "-Adobe-Helvetica-Medium-R-Normal--14-140-75-75-P-77-ISO8859-1"
WEIGHT 10
RESOLUTION 103
QUAD_WIDTH 9
DEFAULT_CHAR 32
FONT_ASCENT 13
FONT_DESCENT 3
ENDPROPERTIES
CHARS 191
STARTCHAR space
ENCODING 32
SWIDTH 274 0
DWIDTH 4 0
BBX 1 1 0 0
BITMAP
00
ENDCHAR
STARTCHAR exclam
ENCODING 33
SWIDTH 274 0
DWIDTH 4 0
BBX 1 11 2 0
BITMAP
80
80
80
80
80
80
80
80
00
80
80
ENDCHAR
STARTCHAR quotedbl
ENCODING 34
SWIDTH 342 0
DWIDTH 5 0
BBX 3 3 1 8
BITMAP
a0
a0
a0
ENDCHAR
STARTCHAR numbersign
ENCODING 35
SWIDTH 548 0
DWIDTH 8 0
BBX 7 10 0 0
BITMAP
14
14
14
7e
28
28
fc
50
50
50
ENDCHAR
STARTCHAR dollar
ENCODING 36
SWIDTH 548 0
DWIDTH 8 0
BBX 7 14 0 -2
BITMAP
10
10
7c
92
92
50
38
14
12
92
92
7c
10
10
ENDCHAR
STARTCHAR percent
ENCODING 37
SWIDTH 822 0
DWIDTH 12 0
BBX 11 10 0 0
BITMAP
7080
8900
8900
7200
0200
0400
09c0
1220
1220
21c0
ENDCHAR
STARTCHAR ampersand
ENCODING 38
SWIDTH 685 0
DWIDTH 10 0
BBX 8 10 1 0
BITMAP
30
48
48
30
20
52
8a
84
8a
71
ENDCHAR
STARTCHAR apostrophe
ENCODING 39
SWIDTH 205 0
DWIDTH 3 0
BBX 2 3 1 8
BITMAP
c0
40
80
ENDCHAR
STARTCHAR parenleft
ENCODING 40
SWIDTH 342 0
DWIDTH 5 0
BBX 3 14 1 -3
BITMAP
20
40
40
80
80
80
80
80
80
80
80
40
40
20
ENDCHAR
STARTCHAR parenright
ENCODING 41
SWIDTH 342 0
DWIDTH 5 0
BBX 3 14 1 -3
BITMAP
80
40
40
20
20
20
20
20
20
20
20
40
40
80
ENDCHAR
STARTCHAR asterisk
ENCODING 42
SWIDTH 480 0
DWIDTH 7 0
BBX 5 4 1 6
BITMAP
20
f8
20
50
ENDCHAR
STARTCHAR plus
ENCODING 43
SWIDTH 617 0
DWIDTH 9 0
BBX 7 7 1 1
BITMAP
10
10
10
fe
10
10
10
ENDCHAR
STARTCHAR comma
ENCODING 44
SWIDTH 205 0
DWIDTH 3 0
BBX 2 4 0 -2
BITMAP
40
40
40
80
ENDCHAR
STARTCHAR minus
ENCODING 45
SWIDTH 617 0
DWIDTH 9 0
BBX 7 1 1 4
BITMAP
fe
ENDCHAR
STARTCHAR period
ENCODING 46
SWIDTH 205 0
DWIDTH 3 0
BBX 1 2 1 0
BITMAP
80
80
ENDCHAR
STARTCHAR slash
ENCODING 47
SWIDTH 274 0
DWIDTH 4 0
BBX 4 11 0 0
BITMAP
10
10
20
20
20
40
40
40
80
80
80
ENDCHAR
STARTCHAR 0
ENCODING 48
SWIDTH 548 0
DWIDTH 8 0
BBX 6 10 1 0
BITMAP
78
84
84
84
84
84
84
84
84
78
ENDCHAR
STARTCHAR 1
ENCODING 49
SWIDTH 548 0
DWIDTH 8 0
BBX 3 10 2 0
BITMAP
20
e0
20
20
20
20
20
20
20
20
ENDCHAR
STARTCHAR 2
ENCODING 50
SWIDTH 548 0
DWIDTH 8 0
BBX 6 10 1 0
BITMAP
78
84
84
08
10
20
40
80
80
fc
ENDCHAR
STARTCHAR 3
ENCODING 51
SWIDTH 548 0
DWIDTH 8 0
BBX 6 10 1 0
BITMAP
78
84
84
04
38
04
04
84
84
78
ENDCHAR
STARTCHAR 4
ENCODING 52
SWIDTH 548 0
DWIDTH 8 0
BBX 7 10 1 0
BITMAP
0c
14
24
24
44
84
fe
04
04
04
ENDCHAR
STARTCHAR 5
ENCODING 53
SWIDTH 548 0
DWIDTH 8 0
BBX 6 10 1 0
BITMAP
fc
80
80
80
f8
04
04
84
84
78
ENDCHAR
STARTCHAR 6
ENCODING 54
SWIDTH 548 0
DWIDTH 8 0
BBX 6 10 1 0
BITMAP
78
84
80
80
b8
c4
84
84
84
78
ENDCHAR
STARTCHAR 7
ENCODING 55
SWIDTH 548 0
DWIDTH 8 0
BBX 6 10 1 0
BITMAP
fc
04
08
08
10
10
20
20
40
40
ENDCHAR
STARTCHAR 8
ENCODING 56
SWIDTH 548 0
DWIDTH 8 0
BBX 6 10 1 0
BITMAP
78
84
84
84
78
84
84
84
84
78
ENDCHAR
STARTCHAR 9
ENCODING 57
SWIDTH 548 0
DWIDTH 8 0
BBX 6 10 1 0
BITMAP
78
84
84
84
84
7c
04
84
84
78
ENDCHAR
STARTCHAR colon
ENCODING 58
SWIDTH 205 0
DWIDTH 3 0
BBX 1 8 1 0
BITMAP
80
80
00
00
00
00
80
80
ENDCHAR
STARTCHAR semicolon
ENCODING 59
SWIDTH 274 0
DWIDTH 4 0
BBX 2 10 0 -2
BITMAP
40
40
00
00
00
00
40
40
40
80
ENDCHAR
STARTCHAR less
ENCODING 60
SWIDTH 548 0
DWIDTH 8 0
BBX 6 5 1 2
BITMAP
0c
30
c0
30
0c
ENDCHAR
STARTCHAR equal
ENCODING 61
SWIDTH 617 0
DWIDTH 9 0
BBX 6 3 1 3
BITMAP
fc
00
fc
ENDCHAR
STARTCHAR greater
ENCODING 62
SWIDTH 548 0
DWIDTH 8 0
BBX 6 5 1 2
BITMAP
c0
30
0c
30
c0
ENDCHAR
STARTCHAR question
ENCODING 63
SWIDTH 548 0
DWIDTH 8 0
BBX 6 11 1 0
BITMAP
30
cc
84
84
04
08
10
20
00
20
20
ENDCHAR
STARTCHAR at
ENCODING 64
SWIDTH 891 0
DWIDTH 13 0
BBX 11 12 1 -1
BITMAP
0f00
30c0
4020
46a0
8920
9120
9120
9340
8d80
4000
6080
1f00
ENDCHAR
STARTCHAR A
ENCODING 65
SWIDTH 754 0
DWIDTH 11 0
BBX 9 11 1 0
BITMAP
0800
0800
1400
1400
2200
2200
4100
7f00
4100
8080
8080
ENDCHAR
STARTCHAR B
ENCODING 66
SWIDTH 617 0
DWIDTH 9 0
BBX 7 11 1 0
BITMAP
fc
86
82
82
82
fc
82
82
82
82
fc
ENDCHAR
STARTCHAR C
ENCODING 67
SWIDTH 685 0
DWIDTH 10 0
BBX 8 11 1 0
BITMAP
1c
63
41
80
80
80
80
80
41
63
1c
ENDCHAR
STARTCHAR D
ENCODING 68
SWIDTH 685 0
DWIDTH 10 0
BBX 8 11 1 0
BITMAP
f8
86
82
81
81
81
81
81
82
86
f8
ENDCHAR
STARTCHAR E
ENCODING 69
SWIDTH 617 0
DWIDTH 9 0
BBX 7 11 1 0
BITMAP
fe
80
80
80
80
fc
80
80
80
80
fe
ENDCHAR
STARTCHAR F
ENCODING 70
SWIDTH 617 0
DWIDTH 9 0
BBX 7 11 1 0
BITMAP
fe
80
80
80
80
fc
80
80
80
80
80
ENDCHAR
STARTCHAR G
ENCODING 71
SWIDTH 754 0
DWIDTH 11 0
BBX 9 11 1 0
BITMAP
1e00
6180
4080
8000
8000
8780
8080
8080
4080
6380
1c80
ENDCHAR
STARTCHAR H
ENCODING 72
SWIDTH 685 0
DWIDTH 10 0
BBX 8 11 1 0
BITMAP
81
81
81
81
81
ff
81
81
81
81
81
ENDCHAR
STARTCHAR I
ENCODING 73
SWIDTH 342 0
DWIDTH 5 0
BBX 1 11 2 0
BITMAP
80
80
80
80
80
80
80
80
80
80
80
ENDCHAR
STARTCHAR J
ENCODING 74
SWIDTH 548 0
DWIDTH 8 0
BBX 6 11 1 0
BITMAP
04
04
04
04
04
04
04
04
84
84
78
ENDCHAR
STARTCHAR K
ENCODING 75
SWIDTH 685 0
DWIDTH 10 0
BBX 8 11 1 0
BITMAP
82
84
88
90
a0
e0
90
88
84
82
81
ENDCHAR
STARTCHAR L
ENCODING 76
SWIDTH 548 0
DWIDTH 8 0
BBX 6 11 1 0
BITMAP
80
80
80
80
80
80
80
80
80
80
fc
ENDCHAR
STARTCHAR M
ENCODING 77
SWIDTH 891 0
DWIDTH 13 0
BBX 11 11 1 0
BITMAP
8020
8020
c060
a0a0
a0a0
9120
9120
8a20
8a20
8420
8420
ENDCHAR
STARTCHAR N
ENCODING 78
SWIDTH 685 0
DWIDTH 10 0
BBX 8 11 1 0
BITMAP
c1
c1
a1
91
91
89
89
85
85
83
83
ENDCHAR
STARTCHAR O
ENCODING 79
SWIDTH 754 0
DWIDTH 11 0
BBX 9 11 1 0
BITMAP
1c00
6300
4100
8080
8080
8080
8080
8080
4100
6300
1c00
ENDCHAR
STARTCHAR P
ENCODING 80
SWIDTH 617 0
DWIDTH 9 0
BBX 7 11 1 0
BITMAP
fc
86
82
82
86
fc
80
80
80
80
80
ENDCHAR
STARTCHAR Q
ENCODING 81
SWIDTH 754 0
DWIDTH 11 0
BBX 9 11 1 0
BITMAP
1c00
6300
4100
8080
8080
8080
8880
8480
4300
6300
1c80
ENDCHAR
STARTCHAR R
ENCODING 82
SWIDTH 617 0
DWIDTH 9 0
BBX 7 11 1 0
BITMAP
fc
86
82
82
84
f8
84
82
82
82
82
ENDCHAR
STARTCHAR S
ENCODING 83
SWIDTH 617 0
DWIDTH 9 0
BBX 7 11 1 0
BITMAP
38
c6
82
80
60
18
06
02
82
c6
38
ENDCHAR
STARTCHAR T
ENCODING 84
SWIDTH 617 0
DWIDTH 9 0
BBX 9 11 0 0
BITMAP
ff80
0800
0800
0800
0800
0800
0800
0800
0800
0800
0800
ENDCHAR
STARTCHAR U
ENCODING 85
SWIDTH 685 0
DWIDTH 10 0
BBX 8 11 1 0
BITMAP
81
81
81
81
81
81
81
81
81
42
3c
ENDCHAR
STARTCHAR V
ENCODING 86
SWIDTH 754 0
DWIDTH 11 0
BBX 9 11 1 0
BITMAP
8080
8080
4100
4100
2200
2200
2200
1400
1400
0800
0800
ENDCHAR
STARTCHAR W
ENCODING 87
SWIDTH 1028 0
DWIDTH 15 0
BBX 13 11 1 0
BITMAP
8208
8208
8508
4510
4510
4510
28a0
28a0
28a0
1040
1040
ENDCHAR
STARTCHAR X
ENCODING 88
SWIDTH 685 0
DWIDTH 10 0
BBX 8 11 1 0
BITMAP
81
81
42
24
18
18
24
42
42
81
81
ENDCHAR
STARTCHAR Y
ENCODING 89
SWIDTH 617 0
DWIDTH 9 0
BBX 9 11 0 0
BITMAP
8080
4100
4100
2200
2200
1400
0800
0800
0800
0800
0800
ENDCHAR
STARTCHAR Z
ENCODING 90
SWIDTH 617 0
DWIDTH 9 0
BBX 7 11 1 0
BITMAP
fe
02
04
08
18
10
20
60
40
80
fe
ENDCHAR
STARTCHAR bracketleft
ENCODING 91
SWIDTH 274 0
DWIDTH 4 0
BBX 3 14 1 -3
BITMAP
e0
80
80
80
80
80
80
80
80
80
80
80
80
e0
ENDCHAR
STARTCHAR backslash
ENCODING 92
SWIDTH 274 0
DWIDTH 4 0
BBX 4 11 0 0
BITMAP
80
80
40
40
40
20
20
20
10
10
10
ENDCHAR
STARTCHAR bracketright
ENCODING 93
SWIDTH 274 0
DWIDTH 4 0
BBX 3 14 0 -3
BITMAP
e0
20
20
20
20
20
20
20
20
20
20
20
20
e0
ENDCHAR
STARTCHAR asciicircum
ENCODING 94
SWIDTH 480 0
DWIDTH 7 0
BBX 7 4 0 6
BITMAP
10
28
44
82
ENDCHAR
STARTCHAR underscore
ENCODING 95
SWIDTH 548 0
DWIDTH 8 0
BBX 8 1 0 -3
BITMAP
ff
ENDCHAR
STARTCHAR grave
ENCODING 96
SWIDTH 205 0
DWIDTH 3 0
BBX 2 3 0 8
BITMAP
40
80
c0
ENDCHAR
STARTCHAR a
ENCODING 97
SWIDTH 548 0
DWIDTH 8 0
BBX 7 8 1 0
BITMAP
78
cc
04
7c
c4
84
cc
76
ENDCHAR
STARTCHAR b
ENCODING 98
SWIDTH 548 0
DWIDTH 8 0
BBX 6 11 1 0
BITMAP
80
80
80
b8
cc
84
84
84
84
cc
b8
ENDCHAR
STARTCHAR c
ENCODING 99
SWIDTH 548 0
DWIDTH 8 0
BBX 6 8 1 0
BITMAP
78
cc
80
80
80
84
cc
78
ENDCHAR
STARTCHAR d
ENCODING 100
SWIDTH 548 0
DWIDTH 8 0
BBX 6 11 1 0
BITMAP
04
04
04
74
cc
84
84
84
84
cc
74
ENDCHAR
STARTCHAR e
ENCODING 101
SWIDTH 548 0
DWIDTH 8 0
BBX 6 8 1 0
BITMAP
78
cc
84
fc
80
80
cc
78
ENDCHAR
STARTCHAR f
ENCODING 102
SWIDTH 205 0
DWIDTH 3 0
BBX 4 11 0 0
BITMAP
30
40
40
e0
40
40
40
40
40
40
40
ENDCHAR
STARTCHAR g
ENCODING 103
SWIDTH 548 0
DWIDTH 8 0
BBX 6 11 1 -3
BITMAP
74
cc
84
84
84
84
cc
74
04
cc
78
ENDCHAR
STARTCHAR h
ENCODING 104
SWIDTH 548 0
DWIDTH 8 0
BBX 6 11 1 0
BITMAP
80
80
80
b8
cc
84
84
84
84
84
84
ENDCHAR
STARTCHAR i
ENCODING 105
SWIDTH 205 0
DWIDTH 3 0
BBX 1 11 1 0
BITMAP
80
80
00
80
80
80
80
80
80
80
80
ENDCHAR
STARTCHAR j
ENCODING 106
SWIDTH 205 0
DWIDTH 3 0
BBX 3 14 -1 -3
BITMAP
20
20
00
20
20
20
20
20
20
20
20
20
20
c0
ENDCHAR
STARTCHAR k
ENCODING 107
SWIDTH 480 0
DWIDTH 7 0
BBX 6 11 1 0
BITMAP
80
80
80
88
90
a0
c0
a0
90
88
84
ENDCHAR
STARTCHAR l
ENCODING 108
SWIDTH 205 0
DWIDTH 3 0
BBX 1 11 1 0
BITMAP
80
80
80
80
80
80
80
80
80
80
80
ENDCHAR
STARTCHAR m
ENCODING 109
SWIDTH 754 0
DWIDTH 11 0
BBX 9 8 1 0
BITMAP
b300
cc80
8880
8880
8880
8880
8880
8880
ENDCHAR
STARTCHAR n
ENCODING 110
SWIDTH 548 0
DWIDTH 8 0
BBX 6 8 1 0
BITMAP
b8
cc
84
84
84
84
84
84
ENDCHAR
STARTCHAR o
ENCODING 111
SWIDTH 548 0
DWIDTH 8 0
BBX 6 8 1 0
BITMAP
78
cc
84
84
84
84
cc
78
ENDCHAR
STARTCHAR p
ENCODING 112
SWIDTH 548 0
DWIDTH 8 0
BBX 6 11 1 -3
BITMAP
b8
cc
84
84
84
84
cc
b8
80
80
80
ENDCHAR
STARTCHAR q
ENCODING 113
SWIDTH 548 0
DWIDTH 8 0
BBX 6 11 1 -3
BITMAP
74
cc
84
84
84
84
cc
74
04
04
04
ENDCHAR
STARTCHAR r
ENCODING 114
SWIDTH 342 0
DWIDTH 5 0
BBX 4 8 1 0
BITMAP
b0
c0
80
80
80
80
80
80
ENDCHAR
STARTCHAR s
ENCODING 115
SWIDTH 548 0
DWIDTH 8 0
BBX 6 8 1 0
BITMAP
78
84
80
78
0c
04
84
78
ENDCHAR
STARTCHAR t
ENCODING 116
SWIDTH 274 0
DWIDTH 4 0
BBX 4 10 0 0
BITMAP
40
40
f0
40
40
40
40
40
40
30
ENDCHAR
STARTCHAR u
ENCODING 117
SWIDTH 548 0
DWIDTH 8 0
BBX 6 8 1 0
BITMAP
84
84
84
84
84
84
cc
74
ENDCHAR
STARTCHAR v
ENCODING 118
SWIDTH 548 0
DWIDTH 8 0
BBX 6 8 1 0
BITMAP
84
84
84
48
48
48
30
30
ENDCHAR
STARTCHAR w
ENCODING 119
SWIDTH 685 0
DWIDTH 10 0
BBX 9 8 0 0
BITMAP
8880
8880
8880
4900
4900
5500
2200
2200
ENDCHAR
STARTCHAR x
ENCODING 120
SWIDTH 480 0
DWIDTH 7 0
BBX 7 8 0 0
BITMAP
c6
44
28
10
10
28
44
c6
ENDCHAR
STARTCHAR y
ENCODING 121
SWIDTH 480 0
DWIDTH 7 0
BBX 7 11 0 -3
BITMAP
82
82
44
44
24
28
18
10
10
30
60
ENDCHAR
STARTCHAR z
ENCODING 122
SWIDTH 480 0
DWIDTH 7 0
BBX 6 8 0 0
BITMAP
fc
04
08
10
20
40
80
fc
ENDCHAR
STARTCHAR braceleft
ENCODING 123
SWIDTH 342 0
DWIDTH 5 0
BBX 5 14 0 -3
BITMAP
18
20
20
20
20
40
80
40
20
20
20
20
20
18
ENDCHAR
STARTCHAR bar
ENCODING 124
SWIDTH 205 0
DWIDTH 3 0
BBX 1 14 1 -3
BITMAP
80
80
80
80
80
80
80
80
80
80
80
80
80
80
ENDCHAR
STARTCHAR braceright
ENCODING 125
SWIDTH 342 0
DWIDTH 5 0
BBX 5 14 0 -3
BITMAP
c0
20
20
20
20
10
08
10
20
20
20
20
20
c0
ENDCHAR
STARTCHAR asciitilde
ENCODING 126
SWIDTH 548 0
DWIDTH 8 0
BBX 6 3 1 3
BITMAP
64
b4
98
ENDCHAR
STARTCHAR nobreakspace
ENCODING 160
SWIDTH 274 0
DWIDTH 4 0
BBX 1 1 0 0
BITMAP
00
ENDCHAR
STARTCHAR exclamdown
ENCODING 161
SWIDTH 274 0
DWIDTH 4 0
BBX 1 11 1 -3
BITMAP
00
00
00
00
00
00
00
00
00
00
00
ENDCHAR
STARTCHAR cent
ENCODING 162
SWIDTH 548 0
DWIDTH 8 0
BBX 6 10 1 -1
BITMAP
00
00
00
00
00
00
00
00
00
00
ENDCHAR
STARTCHAR sterling
ENCODING 163
SWIDTH 548 0
DWIDTH 8 0
BBX 7 10 0 0
BITMAP
00
00
00
00
00
00
00
00
00
00
ENDCHAR
STARTCHAR currency
ENCODING 164
SWIDTH 548 0
DWIDTH 8 0
BBX 6 6 1 2
BITMAP
00
00
80
80
00
80
ENDCHAR
STARTCHAR yen
ENCODING 165
SWIDTH 480 0
DWIDTH 7 0
BBX 7 10 0 0
BITMAP
80
80
80
80
80
80
80
04
78
cc
ENDCHAR
STARTCHAR brokenbar
ENCODING 166
SWIDTH 205 0
DWIDTH 3 0
BBX 1 13 1 -2
BITMAP
80
80
80
80
80
00
80
00
00
00
00
00
80
ENDCHAR
STARTCHAR section
ENCODING 167
SWIDTH 548 0
DWIDTH 8 0
BBX 5 14 2 -3
BITMAP
20
40
60
d8
80
78
48
48
78
80
80
80
40
40
ENDCHAR
STARTCHAR diaeresis
ENCODING 168
SWIDTH 342 0
DWIDTH 5 0
BBX 5 1 0 9
BITMAP
28
ENDCHAR
STARTCHAR copyright
ENCODING 169
SWIDTH 822 0
DWIDTH 12 0
BBX 10 10 1 0
BITMAP
fe00
fe00
1080
8080
8080
0000
0080
8080
8080
70c0
ENDCHAR
STARTCHAR ordfeminine
ENCODING 170
SWIDTH 411 0
DWIDTH 6 0
BBX 4 7 1 4
BITMAP
80
c0
70
90
80
80
c0
ENDCHAR
STARTCHAR guillemotleft
ENCODING 171
SWIDTH 548 0
DWIDTH 8 0
BBX 6 5 1 2
BITMAP
70
18
88
d8
70
ENDCHAR
STARTCHAR notsign
ENCODING 172
SWIDTH 617 0
DWIDTH 9 0
BBX 7 4 1 3
BITMAP
d8
1e
00
60
ENDCHAR
STARTCHAR hyphen
ENCODING 173
SWIDTH 342 0
DWIDTH 5 0
BBX 4 1 0 4
BITMAP
80
ENDCHAR
STARTCHAR registered
ENCODING 174
SWIDTH 822 0
DWIDTH 12 0
BBX 10 10 1 0
BITMAP
4c80
9240
9040
9040
9240
4c80
6180
1e00
e000
7080
ENDCHAR
STARTCHAR macron
ENCODING 175
SWIDTH 274 0
DWIDTH 4 0
BBX 4 1 0 9
BITMAP
d0
ENDCHAR
STARTCHAR degree
ENCODING 176
SWIDTH 411 0
DWIDTH 6 0
BBX 4 4 1 6
BITMAP
00
f0
20
40
ENDCHAR
STARTCHAR plusminus
ENCODING 177
SWIDTH 617 0
DWIDTH 9 0
BBX 7 9 1 0
BITMAP
90
48
24
fe
02
02
02
f0
1e
ENDCHAR
STARTCHAR twosuperior
ENCODING 178
SWIDTH 342 0
DWIDTH 5 0
BBX 4 6 0 4
BITMAP
00
60
80
50
80
90
ENDCHAR
STARTCHAR threesuperior
ENCODING 179
SWIDTH 342 0
DWIDTH 5 0
BBX 4 6 0 4
BITMAP
40
90
40
90
40
90
ENDCHAR
STARTCHAR acute
ENCODING 180
SWIDTH 342 0
DWIDTH 5 0
BBX 2 2 2 9
BITMAP
40
40
ENDCHAR
STARTCHAR mu
ENCODING 181
SWIDTH 548 0
DWIDTH 8 0
BBX 6 11 1 -3
BITMAP
80
60
80
1c
00
f0
60
90
90
60
10
ENDCHAR
STARTCHAR paragraph
ENCODING 182
SWIDTH 548 0
DWIDTH 8 0
BBX 7 14 0 -3
BITMAP
10
10
fe
10
10
10
00
fe
60
90
10
20
40
f0
ENDCHAR
STARTCHAR periodcentered
ENCODING 183
SWIDTH 274 0
DWIDTH 4 0
BBX 2 1 1 4
BITMAP
40
ENDCHAR
STARTCHAR cedilla
ENCODING 184
SWIDTH 342 0
DWIDTH 5 0
BBX 4 3 0 -3
BITMAP
90
20
10
ENDCHAR
STARTCHAR onesuperior
ENCODING 185
SWIDTH 342 0
DWIDTH 5 0
BBX 2 6 1 4
BITMAP
80
40
40
80
80
80
ENDCHAR
STARTCHAR masculine
ENCODING 186
SWIDTH 411 0
DWIDTH 6 0
BBX 4 7 1 4
BITMAP
80
80
80
80
c0
b0
80
ENDCHAR
STARTCHAR guillemotright
ENCODING 187
SWIDTH 548 0
DWIDTH 8 0
BBX 6 5 1 2
BITMAP
80
80
3c
74
f4
ENDCHAR
STARTCHAR onequarter
ENCODING 188
SWIDTH 822 0
DWIDTH 12 0
BBX 10 11 1 0
BITMAP
f4c0
7400
1400
1400
1400
14c0
2080
6040
c040
4040
4040
ENDCHAR
STARTCHAR onehalf
ENCODING 189
SWIDTH 822 0
DWIDTH 12 0
BBX 9 11 1 0
BITMAP
9080
9000
0080
9000
2400
9000
0080
0000
0000
0000
0000
ENDCHAR
STARTCHAR threequarters
ENCODING 190
SWIDTH 822 0
DWIDTH 12 0
BBX 11 11 0 0
BITMAP
8000
8000
8000
8020
c020
8040
00c0
0040
0040
0040
0040
ENDCHAR
STARTCHAR questiondown
ENCODING 191
SWIDTH 548 0
DWIDTH 8 0
BBX 6 11 1 -3
BITMAP
00
14
80
20
80
20
00
40
00
44
80
ENDCHAR
STARTCHAR Agrave
ENCODING 192
SWIDTH 754 0
DWIDTH 11 0
BBX 9 14 1 0
BITMAP
6080
9100
2100
1200
9200
6400
0480
0900
0a00
1380
1000
1000
0000
2000
ENDCHAR
STARTCHAR Aacute
ENCODING 193
SWIDTH 754 0
DWIDTH 11 0
BBX 9 14 1 0
BITMAP
8080
8480
3000
0000
0000
0000
0000
0000
0000
0000
0000
0000
0000
0000
ENDCHAR
STARTCHAR Acircumflex
ENCODING 194
SWIDTH 754 0
DWIDTH 11 0
BBX 9 14 1 0
BITMAP
0080
8080
8000
0000
0000
0000
0000
0000
0000
0000
0000
0000
0000
0000
ENDCHAR
STARTCHAR Atilde
ENCODING 195
SWIDTH 754 0
DWIDTH 11 0
BBX 9 14 1 0
BITMAP
0080
8080
8000
0000
0000
0000
0000
0000
0000
0000
0000
0000
0000
0000
ENDCHAR
STARTCHAR Adiaeresis
ENCODING 196
SWIDTH 754 0
DWIDTH 11 0
BBX 9 13 1 0
BITMAP
0080
8080
8000
0000
0000
0000
0000
0000
0000
0000
0000
0000
0000
ENDCHAR
STARTCHAR Aring
ENCODING 197
SWIDTH 754 0
DWIDTH 11 0
BBX 9 14 1 0
BITMAP
0000
0080
8080
8000
0000
0000
0000
0000
0000
0000
0000
0000
0000
0000
ENDCHAR
STARTCHAR AE
ENCODING 198
SWIDTH 960 0
DWIDTH 14 0
BBX 12 11 1 0
BITMAP
0080
8080
8010
0020
0010
0000
0000
0010
0010
0020
0020
ENDCHAR
STARTCHAR Ccedilla
ENCODING 199
SWIDTH 685 0
DWIDTH 10 0
BBX 8 14 1 -3
BITMAP
00
41
00
7f
00
41
00
80
80
80
80
0f
f0
1c
ENDCHAR
STARTCHAR Egrave
ENCODING 200
SWIDTH 617 0
DWIDTH 9 0
BBX 7 14 1 0
BITMAP
00
14
00
14
00
24
00
26
e0
44
00
7c
00
44
ENDCHAR
STARTCHAR Eacute
ENCODING 201
SWIDTH 617 0
DWIDTH 9 0
BBX 7 14 1 0
BITMAP
00
84
00
86
f0
1c
62
40
80
80
80
80
80
40
ENDCHAR
STARTCHAR Ecircumflex
ENCODING 202
SWIDTH 617 0
DWIDTH 9 0
BBX 7 14 1 0
BITMAP
62
1c
08
24
18
20
10
00
fe
80
80
80
80
fc
ENDCHAR
STARTCHAR Ediaeresis
ENCODING 203
SWIDTH 617 0
DWIDTH 9 0
BBX 7 13 1 0
BITMAP
80
80
80
80
fe
08
10
00
fe
80
80
80
80
ENDCHAR
STARTCHAR Igrave
ENCODING 204
SWIDTH 342 0
DWIDTH 5 0
BBX 2 14 1 0
BITMAP
c0
80
80
80
80
c0
00
00
00
c0
80
80
80
80
ENDCHAR
STARTCHAR Iacute
ENCODING 205
SWIDTH 342 0
DWIDTH 5 0
BBX 2 14 2 0
BITMAP
c0
80
80
80
80
c0
40
00
c0
80
80
80
80
c0
ENDCHAR
STARTCHAR Icircumflex
ENCODING 206
SWIDTH 342 0
DWIDTH 5 0
BBX 3 14 1 0
BITMAP
80
80
80
80
e0
80
40
00
40
40
40
40
40
40
ENDCHAR
STARTCHAR Idiaeresis
ENCODING 207
SWIDTH 342 0
DWIDTH 5 0
BBX 5 13 0 0
BITMAP
40
40
40
40
40
40
80
00
80
80
80
80
80
ENDCHAR
STARTCHAR ETH
ENCODING 208
SWIDTH 685 0
DWIDTH 10 0
BBX 9 11 0 0
BITMAP
8080
8080
8080
4080
0000
4000
4000
4000
4000
4000
d800
ENDCHAR
STARTCHAR Ntilde
ENCODING 209
SWIDTH 685 0
DWIDTH 10 0
BBX 8 14 1 0
BITMAP
20
20
20
20
20
20
20
20
20
20
20
7c
00
43
ENDCHAR
STARTCHAR Ograve
ENCODING 210
SWIDTH 754 0
DWIDTH 11 0
BBX 9 14 1 0
BITMAP
0000
0000
8000
8080
8000
8000
8000
0000
0000
0000
2c00
c180
a180
9180
ENDCHAR
STARTCHAR Oacute
ENCODING 211
SWIDTH 754 0
DWIDTH 11 0
BBX 9 14 1 0
BITMAP
8980
8580
8300
0000
0000
0000
0000
0000
0080
8080
8080
8080
8080
8000
ENDCHAR
STARTCHAR Ocircumflex
ENCODING 212
SWIDTH 754 0
DWIDTH 11 0
BBX 9 14 1 0
BITMAP
0000
0000
0000
0000
0000
0000
0000
0000
0080
8080
8080
8080
8080
8000
ENDCHAR
STARTCHAR Otilde
ENCODING 213
SWIDTH 754 0
DWIDTH 11 0
BBX 9 14 1 0
BITMAP
0000
0000
0000
0000
0000
0000
0000
0000
0080
8080
8080
8080
8080
8000
ENDCHAR
STARTCHAR Odiaeresis
ENCODING 214
SWIDTH 754 0
DWIDTH 11 0
BBX 9 13 1 0
BITMAP
0000
0000
0000
0000
0000
0000
0000
0000
0080
8080
8080
8080
8080
ENDCHAR
STARTCHAR multiply
ENCODING 215
SWIDTH 617 0
DWIDTH 9 0
BBX 7 7 1 1
BITMAP
80
40
00
62
00
1c
00
ENDCHAR
STARTCHAR Ooblique
ENCODING 216
SWIDTH 754 0
DWIDTH 11 0
BBX 11 11 0 0
BITMAP
3600
0000
1c00
6300
4100
8080
8080
8080
8080
8080
4100
ENDCHAR
STARTCHAR Ugrave
ENCODING 217
SWIDTH 685 0
DWIDTH 10 0
BBX 8 14 1 0
BITMAP
63
00
1c
00
82
44
28
10
28
44
82
0e
20
31
ENDCHAR
STARTCHAR Uacute
ENCODING 218
SWIDTH 685 0
DWIDTH 10 0
BBX 8 14 1 0
BITMAP
c0
20
80
41
40
42
40
44
40
48
40
50
40
20
ENDCHAR
STARTCHAR Ucircumflex
ENCODING 219
SWIDTH 685 0
DWIDTH 10 0
BBX 8 14 1 0
BITMAP
80
71
80
8e
00
10
08
00
81
81
81
81
81
81
ENDCHAR
STARTCHAR Udiaeresis
ENCODING 220
SWIDTH 685 0
DWIDTH 10 0
BBX 8 13 1 0
BITMAP
81
81
81
42
3c
04
08
00
81
81
81
81
81
ENDCHAR
STARTCHAR Yacute
ENCODING 221
SWIDTH 617 0
DWIDTH 9 0
BBX 9 14 0 0
BITMAP
8180
8180
4200
0800
0080
8180
8180
8180
8180
4200
6600
8180
8180
8180
ENDCHAR
STARTCHAR THORN
ENCODING 222
SWIDTH 617 0
DWIDTH 9 0
BBX 7 11 1 0
BITMAP
80
80
80
42
3c
04
00
08
00
00
00
ENDCHAR
STARTCHAR ssharp
ENCODING 223
SWIDTH 480 0
DWIDTH 7 0
BBX 5 11 1 0
BITMAP
80
80
40
00
40
00
20
00
20
00
10
ENDCHAR
STARTCHAR agrave
ENCODING 224
SWIDTH 548 0
DWIDTH 8 0
BBX 7 11 1 0
BITMAP
00
08
00
08
00
08
00
08
00
08
00
ENDCHAR
STARTCHAR aacute
ENCODING 225
SWIDTH 548 0
DWIDTH 8 0
BBX 7 11 1 0
BITMAP
80
80
fc
86
82
82
86
fc
80
80
80
ENDCHAR
STARTCHAR acircumflex
ENCODING 226
SWIDTH 548 0
DWIDTH 8 0
BBX 7 11 1 0
BITMAP
70
88
88
88
b0
90
88
88
88
88
b0
ENDCHAR
STARTCHAR atilde
ENCODING 227
SWIDTH 548 0
DWIDTH 8 0
BBX 7 11 1 0
BITMAP
20
10
00
78
cc
04
7c
c4
84
cc
76
ENDCHAR
STARTCHAR adiaeresis
ENCODING 228
SWIDTH 548 0
DWIDTH 8 0
BBX 7 10 1 0
BITMAP
08
10
00
78
cc
04
7c
c4
84
cc
ENDCHAR
STARTCHAR aring
ENCODING 229
SWIDTH 548 0
DWIDTH 8 0
BBX 7 12 1 0
BITMAP
76
10
28
00
78
cc
04
7c
c4
84
cc
76
ENDCHAR
STARTCHAR ae
ENCODING 230
SWIDTH 891 0
DWIDTH 13 0
BBX 11 8 1 0
BITMAP
3440
0060
cc00
7cc0
84c0
7660
0060
cc00
ENDCHAR
STARTCHAR ccedilla
ENCODING 231
SWIDTH 548 0
DWIDTH 8 0
BBX 6 11 1 -3
BITMAP
7c
c4
84
cc
74
30
48
30
00
78
cc
ENDCHAR
STARTCHAR egrave
ENCODING 232
SWIDTH 548 0
DWIDTH 8 0
BBX 6 11 1 0
BITMAP
04
7c
c4
84
cc
74
78
c0
c4
60
04
ENDCHAR
STARTCHAR eacute
ENCODING 233
SWIDTH 548 0
DWIDTH 8 0
BBX 6 11 1 0
BITMAP
20
7c
e0
c4
00
84
00
cc
60
78
c0
ENDCHAR
STARTCHAR ecircumflex
ENCODING 234
SWIDTH 548 0
DWIDTH 8 0
BBX 6 11 1 0
BITMAP
78
cc
80
80
80
84
cc
78
10
48
30
ENDCHAR
STARTCHAR ediaeresis
ENCODING 235
SWIDTH 548 0
DWIDTH 8 0
BBX 6 10 1 0
BITMAP
20
10
00
78
cc
84
fc
80
80
cc
ENDCHAR
STARTCHAR igrave
ENCODING 236
SWIDTH 205 0
DWIDTH 3 0
BBX 2 11 0 0
BITMAP
40
00
00
00
40
c0
80
c0
80
80
c0
ENDCHAR
STARTCHAR iacute
ENCODING 237
SWIDTH 205 0
DWIDTH 3 0
BBX 2 11 1 0
BITMAP
40
00
00
00
40
c0
80
c0
80
80
c0
ENDCHAR
STARTCHAR icircumflex
ENCODING 238
SWIDTH 205 0
DWIDTH 3 0
BBX 3 11 0 0
BITMAP
60
c0
00
60
c0
80
e0
80
80
c0
60
ENDCHAR
STARTCHAR idiaeresis
ENCODING 239
SWIDTH 205 0
DWIDTH 3 0
BBX 3 10 0 0
BITMAP
80
40
00
40
40
40
40
40
40
40
ENDCHAR
STARTCHAR eth
ENCODING 240
SWIDTH 548 0
DWIDTH 8 0
BBX 6 11 1 0
BITMAP
40
40
80
00
80
80
80
80
80
80
80
ENDCHAR
STARTCHAR ntilde
ENCODING 241
SWIDTH 548 0
DWIDTH 8 0
BBX 6 11 1 0
BITMAP
80
40
a0
00
40
40
40
40
40
40
40
ENDCHAR
STARTCHAR ograve
ENCODING 242
SWIDTH 548 0
DWIDTH 8 0
BBX 6 11 1 0
BITMAP
40
a0
00
40
40
40
40
40
40
40
40
ENDCHAR
STARTCHAR oacute
ENCODING 243
SWIDTH 548 0
DWIDTH 8 0
BBX 6 11 1 0
BITMAP
d8
70
90
08
7c
84
84
84
84
cc
78
ENDCHAR
STARTCHAR ocircumflex
ENCODING 244
SWIDTH 548 0
DWIDTH 8 0
BBX 6 11 1 0
BITMAP
34
58
00
b8
cc
84
84
84
84
84
84
ENDCHAR
STARTCHAR otilde
ENCODING 245
SWIDTH 548 0
DWIDTH 8 0
BBX 6 11 1 0
BITMAP
20
10
00
78
cc
84
84
84
84
cc
78
ENDCHAR
STARTCHAR odiaeresis
ENCODING 246
SWIDTH 548 0
DWIDTH 8 0
BBX 6 10 1 0
BITMAP
08
10
00
78
cc
84
84
84
84
cc
ENDCHAR
STARTCHAR division
ENCODING 247
SWIDTH 617 0
DWIDTH 9 0
BBX 7 7 1 1
BITMAP
78
30
48
00
78
cc
84
ENDCHAR
STARTCHAR oslash
ENCODING 248
SWIDTH 548 0
DWIDTH 8 0
BBX 8 8 0 0
BITMAP
84
84
84
cc
78
34
58
00
ENDCHAR
STARTCHAR ugrave
ENCODING 249
SWIDTH 548 0
DWIDTH 8 0
BBX 6 11 1 0
BITMAP
78
cc
84
84
84
84
cc
78
cc
00
78
ENDCHAR
STARTCHAR uacute
ENCODING 250
SWIDTH 548 0
DWIDTH 8 0
BBX 6 11 1 0
BITMAP
cc
84
84
84
84
cc
78
10
10
00
fc
ENDCHAR
STARTCHAR ucircumflex
ENCODING 251
SWIDTH 548 0
DWIDTH 8 0
BBX 6 11 1 0
BITMAP
00
10
10
3c
60
44
48
50
60
44
bc
ENDCHAR
STARTCHAR udiaeresis
ENCODING 252
SWIDTH 548 0
DWIDTH 8 0
BBX 6 10 1 0
BITMAP
20
10
00
84
84
84
84
84
84
cc
ENDCHAR
STARTCHAR yacute
ENCODING 253
SWIDTH 480 0
DWIDTH 7 0
BBX 7 14 0 -3
BITMAP
74
08
10
00
84
84
84
84
84
84
cc
74
30
48
ENDCHAR
STARTCHAR thorn
ENCODING 254
SWIDTH 548 0
DWIDTH 8 0
BBX 6 14 1 -3
BITMAP
00
84
84
84
84
84
84
cc
74
cc
00
84
84
84
ENDCHAR
STARTCHAR ydiaeresis
ENCODING 255
SWIDTH 480 0
DWIDTH 7 0
BBX 7 13 0 -3
BITMAP
84
84
84
cc
74
08
10
00
82
c2
44
44
24
ENDCHAR
ENDFONT
